<?xml version="1.0" encoding="UTF-8" standalone="no"?>
<!-- Created with Inkscape (http://www.inkscape.org/) -->

<svg
   xmlns:dc="http://purl.org/dc/elements/1.1/"
   xmlns:cc="http://creativecommons.org/ns#"
   xmlns:rdf="http://www.w3.org/1999/02/22-rdf-syntax-ns#"
   xmlns:svg="http://www.w3.org/2000/svg"
   xmlns="http://www.w3.org/2000/svg"
   xmlns:sodipodi="http://sodipodi.sourceforge.net/DTD/sodipodi-0.dtd"
   xmlns:inkscape="http://www.inkscape.org/namespaces/inkscape"
   width="30.190472mm"
   height="29.103081mm"
   viewBox="0 0 30.190472 29.10308"
   version="1.1"
   id="svg8"
   inkscape:version="0.92.1 r15371"
   sodipodi:docname="disegno.svg">
  <defs
     id="defs2" />
  <sodipodi:namedview
     id="base"
     pagecolor="#ffffff"
     bordercolor="#666666"
     borderopacity="1.0"
     inkscape:pageopacity="0.0"
     inkscape:pageshadow="2"
     inkscape:zoom="2.8"
     inkscape:cx="77.368992"
     inkscape:cy="86.130326"
     inkscape:document-units="mm"
     inkscape:current-layer="layer1"
     showgrid="false"
     inkscape:window-width="1366"
     inkscape:window-height="705"
     inkscape:window-x="-8"
     inkscape:window-y="-8"
     inkscape:window-maximized="1"
     fit-margin-top="0"
     fit-margin-left="0"
     fit-margin-right="0"
     fit-margin-bottom="0" />
  <metadata
     id="metadata5">
    <rdf:RDF>
      <cc:Work
         rdf:about="">
        <dc:format>image/svg+xml</dc:format>
        <dc:type
           rdf:resource="http://purl.org/dc/dcmitype/StillImage" />
        <dc:title></dc:title>
      </cc:Work>
    </rdf:RDF>
  </metadata>
  <g
     inkscape:label="Livello 1"
     inkscape:groupmode="layer"
     id="layer1"
     transform="translate(74.216592,-122.39089)">
    <path
       id="path4514"
       d="m -59.481412,141.24258 5.82e-4,0.58016 c 4.76e-4,0.12067 0.0034,0.2378 0.09938,0.29506 l 1.508548,0.9919 c 0.349568,0.2396 0.390287,0.28575 0.390287,0.73797 0,1.04915 2.6e-5,3.31568 2.6e-5,4.69601 0,0.63167 -0.51435,1.14329 -1.148847,1.14329 h -0.980625 c -0.635209,0 -1.150144,-0.51297 -1.150144,-1.14535 0,-0.48393 2.7e-5,-4.08186 2.7e-5,-4.08186 l 1.280533,-0.26493 c 0,1.2001 0.0013,3.57021 3.17e-4,4.31559 -1.59e-4,0.12698 0.103188,0.22987 0.230743,0.22987 h 0.254344 c 0.1274,0 0.230664,-0.10244 0.230664,-0.22928 0,-0.74153 0,-3.09608 0,-4.29673 0,-0.32803 -0.106945,-0.3851 -0.27723,-0.49366 l -1.426052,-0.95962 c -0.157533,-0.10043 -0.293317,-0.2912 -0.293317,-0.52329 l -2.6e-5,-1.16562 c 0,-0.63027 0.513188,-1.00902 1.146257,-1.00902 0.738661,0 0.150254,6e-5 1.089657,6e-5 0.576345,0 1.043676,0.4649 1.043676,1.03867 v 0.4635 l -1.282939,0.25696 -2.6e-5,-0.57893 c 0,-0.12785 -0.104114,-0.23148 -0.232542,-0.23148 h -0.251725 c -0.127982,-1e-5 -0.231672,0.10334 -0.231566,0.23073 z m -0.493818,-7.71107 2.6e-5,3.19818 c 0,0.55928 -0.45548,1.01261 -1.017243,1.01251 l -0.831665,-1.6e-4 c -0.561049,-2.6e-4 -1.015709,-0.45313 -1.015709,-1.01166 v -3.20448 c 0,-0.55903 0.455348,-1.01219 1.0169,-1.01195 l 0.660082,2.4e-4 1.097889,0.62902 c 0.05556,0.11438 0.0893,0.24389 0.08972,0.3883 z m -1.143027,-0.0564 c 0,-0.0622 -0.05059,-0.11245 -0.112977,-0.11248 l -0.346551,-2.6e-4 c -0.06183,-5e-5 -0.111998,0.0498 -0.111998,0.11139 0,0.51131 2.6e-5,2.77717 2.6e-5,3.30928 0,0.0622 0.05062,0.11213 0.11303,0.11213 h 0.345149 c 0.06257,0 0.113321,-0.0501 0.113321,-0.11243 0,-0.53228 0,-2.79487 0,-3.30763 z m 15.809169,6.58804 -0.685903,-8e-5 c -0.724164,10e-4 -1.310693,0.46332 -1.310693,1.30678 v 0.86728 c 0,0.23209 0.135784,0.42285 0.293288,0.52332 l 1.426081,0.95959 c 0.170285,0.10858 0.277204,0.16563 0.277204,0.49368 0,0.51531 2.3e-5,1.00389 2.3e-5,1.51919 0,0.20153 -0.191582,0.22175 -0.404968,0.26786 -0.256752,0.0512 -0.311148,-0.0338 -0.311148,-0.22733 0,-0.53599 0,-1.57943 0,-1.57943 l -1.280477,0.26519 v 1.6246 c 0,0.6251 0.579014,1.09964 1.191178,0.9739 0.249161,-0.0512 0.498237,-0.10231 0.747371,-0.15515 0.626322,-0.12991 1.341012,-0.49236 1.341012,-1.19827 0,-0.62794 0,-1.22923 0,-1.85716 0,-0.45223 -0.04072,-0.49837 -0.390287,-0.738 l -1.508572,-0.99187 c -0.09596,-0.0573 -0.0989,-0.17439 -0.09938,-0.29507 l -0.0011,-0.57515 c -4.47e-4,-0.12322 0.09861,-0.23532 0.194892,-0.23532 l 0.327446,-0.002 c 0.110281,0.002 0.193969,0.0971 0.193969,0.21511 l 5.2e-5,0.59719 1.282936,-0.25694 v -0.35859 c 0,-0.57943 -0.462939,-1.143 -1.282965,-1.143 z m -26.337363,7.08245 0.296042,-2.68581 0.311309,2.81173 1.733074,0.35919 0.820261,-7.56756 h -1.282964 l -0.447966,4.07591 -0.44794,-4.07591 h -1.372896 l -0.448072,4.07591 -0.447966,-4.07591 h -1.283018 l 0.726467,6.70031 z m 11.676116,-9.1127 h 0.310144 c 0.13544,0 0.445215,0.1529 0.445215,0.44524 v 0.85214 c 0,0.29242 -0.309801,0.44535 -0.445215,0.44535 h -0.310144 c -0.135282,0 -0.445188,-0.15277 -0.445188,-0.44529 v -0.8522 c 0,-0.29271 0.3098,-0.44524 0.445188,-0.44524 z m 0.06786,0.47993 1.06e-4,0.78282 c 0,0.0326 0.02016,0.0511 0.04882,0.0511 l 0.07636,-6e-5 c 0.029,0 0.04924,-0.0182 0.04924,-0.051 v -0.78282 c 0,-0.033 -0.02056,-0.051 -0.04926,-0.051 h -0.07612 c -0.02868,0 -0.04913,0.0182 -0.04913,0.051 z m 6.840035,-0.77039 v 0 -5.22822 c 0,0 1.02108,2.1e-4 1.842558,0 0.560787,-1.3e-4 1.015259,0.45202 1.015259,1.01031 v 3.20604 c 0,0.55885 -0.45503,1.01187 -1.016343,1.01187 z m 1.143291,-0.84608 v 2e-5 l 0.459237,-9.8e-4 c 0.06202,-1.3e-4 0.112237,-0.0498 0.112237,-0.11152 0,-0.54118 -2.7e-5,-2.88859 0,-3.30935 0,-0.0623 -0.05072,-0.11227 -0.113295,-0.11227 h -0.458179 v 0 z m -5.357177,1.42361 v 1.16184 h 13.250198 v -1.16184 z m 1.325774,-5.80575 v 5.22822 h 2.3046 v -0.96462 h -1.154562 v -4.2636 z m 6.063853,15.32149 -1.2827,0.26781 -1.85e-4,-8.04036 h 1.967441 c 0.725062,0 1.31281,0.58523 1.312704,1.30706 l -2.38e-4,1.78401 c -1.32e-4,0.72107 -0.587322,1.30556 -1.311593,1.30556 h -0.685429 z m 1.85e-4,-4.40031 h 0.48146 c 0.128217,0 0.232119,-0.10348 0.232068,-0.23111 l -7.93e-4,-1.96281 c -8.2e-5,-0.12812 -0.10459,-0.23194 -0.23326,-0.23159 l -0.479475,10e-4 z m -13.117804,1.02439 h -0.338243 l 0.0015,4.40724 -1.284208,-0.26614 v -8.53819 l 2.26864,3.7e-4 c 0.55843,1.1e-4 1.010947,0.45046 1.010947,1.00637 0,0.26747 -7.67e-4,2.30307 -7.67e-4,2.30307 -1.33e-4,0.35004 -0.163672,0.61285 -0.427488,0.79245 l 0.557768,5.1444 -1.292066,-0.26971 z m -0.338005,-1.02439 h 0.481486 c 0.128217,0 0.232146,-0.10348 0.232146,-0.23111 v -1.96654 c 0,-0.12613 -0.102685,-0.22837 -0.229367,-0.22837 h -0.484267 v 2.42602 z m 5.482484,-4.92257 v -0.47993 h -1.069869 v 1.74273 h 0.519483 v -0.62309 h 0.550386 v -0.47821 h -0.550386 v -0.1615 z m -16.356753,8.68823 v 1.16181 l 15.095247,3.1311 15.095217,-3.1311 v -1.16181 l -15.095217,3.12875 z m 6.314308,-7.13791 h 2.123493 l 0.920326,8.48937 -1.28307,-0.26593 -0.305832,-2.80594 h -0.728001 l -0.274585,2.53474 -1.285001,-0.26633 z m 0.837433,4.39664 h 0.506809 l -0.253497,-2.33807 z m 10.165715,-4.39664 v 9.22798 l 1.282964,-0.2659 v -4.56502 h 0.713661 v 4.41706 l 1.282964,-0.26593 v -8.54819 h -1.282964 v 3.37638 h -0.713661 v -3.37638 z m -9.026764,-2.32071 0.268976,-2.48121 0.268975,2.48121 h 1.545934 l 0.564621,-5.22822 h -1.150064 l -0.351817,3.23877 -0.351128,-3.23877 h -1.053042 l -0.351102,3.23877 -0.351817,-3.23877 h -1.150037 l 0.564594,5.22822 z m 12.889839,2.32071 v 8.42767 l 1.282965,-0.26593 v -8.16174 z m -7.962953,-1.74318 h -13.217578 v 1.16184 h 13.217578 z m 4.509955,-0.57753 h -1.154245 l -0.359251,-2.17038 h -0.246142 v 2.17038 h -1.143 v -4.21346 l 0.268341,0.15372 1.897303,-1.08696 c 0.321627,0.13928 0.690589,0.45537 0.691989,0.9358 0,0.20127 0,1.0232 0,1.0232 -9.24e-4,0.31634 -0.16129,0.56134 -0.362503,0.73163 z m -1.188058,-4.26786 c 0,-0.0623 -0.05072,-0.11234 -0.113348,-0.1124 l -0.458232,-3.7e-4 v 1.36393 h 0.458312 c 0.06252,1.6e-4 0.113268,-0.0505 0.113268,-0.11274 0,0 0,-0.96477 0,-1.13842 z m 1.71487,-3.04332 v -3.51263 l -1.473676,0.84545 v 1.75964 l -0.889,0.50929 v -3.16299 h 0.332846 l 1.293971,-0.74078 2.6e-5,-0.78237 h -1.626843 l 5.5e-5,-0.48405 0.769329,-0.65133 v -0.82992 h -3.133963 v 0.82992 l 0.769329,0.65133 v 0.48405 h -1.62679 v 0.78237 l 1.293997,0.74078 h 0.332926 v 3.16299 l -0.889106,-0.50929 v -1.75964 l -1.471454,-0.84545 v 3.51266 l 3.159151,1.80988 z m -3.15931,2.95331 -4.154514,-2.38019 v -7.48398 l 1.973659,-1.12951 h 4.361921 l 1.973633,1.12951 v 7.48398 z m -3.656806,-2.66674 3.656806,2.09505 3.656991,-2.09505 v -6.91073 l -1.608801,-0.92072 h -4.096226 l -1.608773,0.92072 v 6.91073 z"
       inkscape:connector-curvature="0"
       style="opacity:1;fill:#000000;fill-opacity:1;stroke-width:0.26458332" />
  </g>
</svg>
